<?xml version="1.0" standalone="no"?>
<!DOCTYPE svg PUBLIC "-//W3C//DTD SVG 20010904//EN"
 "http://www.w3.org/TR/2001/REC-SVG-20010904/DTD/svg10.dtd">
<svg version="1.0" xmlns="http://www.w3.org/2000/svg"
 width="92.000000pt" height="92.000000pt" viewBox="0 0 92.000000 92.000000"
 preserveAspectRatio="xMidYMid meet">
<metadata>
Created by potrace 1.14, written by Peter Selinger 2001-2017
</metadata>
<g transform="translate(0.000000,92.000000) scale(0.100000,-0.100000)"
fill="#000000" stroke="none">
<path d="M1 788 l0 -133 37 73 c20 39 42 72 50 72 7 0 26 -7 42 -15 28 -15 30
-19 30 -78 l0 -63 -58 -55 -59 -56 26 -29 c15 -16 42 -41 61 -55 l35 -26 -5
98 c-4 74 -2 100 8 104 6 2 12 -1 12 -8 0 -13 129 -141 190 -189 19 -15 64
-54 99 -87 63 -61 75 -66 148 -63 15 1 32 -12 50 -36 39 -52 53 -66 53 -52 0
6 5 8 10 5 6 -3 10 -2 10 3 0 6 23 32 50 59 28 26 52 58 53 70 0 13 7 25 14
27 10 4 13 -19 13 -104 l0 -110 -62 0 c-35 0 -58 -4 -53 -8 6 -4 18 -22 28
-39 l18 -33 -82 0 c-74 0 -80 1 -68 16 8 9 31 27 51 40 43 28 47 39 17 55 -18
9 -27 7 -50 -10 -53 -39 -179 -19 -179 28 0 6 -4 11 -10 11 -5 0 -10 6 -10 13
0 7 -13 28 -28 47 -16 19 -38 51 -50 72 -12 20 -29 39 -38 42 -13 5 -15 -3
-12 -54 4 -74 -10 -83 -48 -29 -23 34 -51 62 -111 109 -25 20 -28 8 -25 -86
l3 -96 -42 -39 c-23 -21 -47 -39 -53 -39 -11 0 -29 30 -54 90 -8 19 -11 -3
-11 -102 l-1 -128 58 0 c52 0 62 3 87 30 28 29 32 30 117 30 l88 0 0 84 c0 47
4 87 9 90 4 3 18 -5 31 -19 12 -13 46 -36 76 -50 30 -14 67 -44 84 -66 19 -23
40 -39 53 -39 19 0 19 -2 -8 -30 l-29 -30 177 0 177 0 0 30 c0 26 -4 30 -28
30 -26 0 -28 3 -28 34 1 45 30 72 47 44 5 -7 9 118 9 285 0 216 -3 296 -11
291 -18 -11 -29 17 -29 79 0 50 2 57 20 57 14 0 20 7 20 21 0 42 -21 49 -137
48 -59 -1 -100 -3 -90 -6 9 -2 14 -9 11 -15 -4 -6 -2 -13 4 -17 26 -16 16 -35
-18 -38 -19 -1 -46 -4 -60 -6 -14 -2 -30 1 -37 5 -6 5 -14 5 -18 -1 -3 -6 17
-35 44 -64 28 -30 51 -57 51 -60 0 -14 -65 -97 -75 -97 -7 0 -36 24 -65 52
l-52 53 -25 -30 c-13 -17 -36 -50 -51 -75 -14 -25 -30 -48 -35 -51 -5 -4 -6
-12 -3 -18 4 -6 1 -11 -8 -11 -10 0 -13 6 -10 15 4 8 2 15 -2 15 -10 0 -10
233 0 249 4 6 3 11 -2 11 -15 0 -24 32 -12 44 5 5 10 18 10 28 0 17 -13 18
-170 18 l-170 0 1 -132z m276 44 c-10 -10 -17 -24 -17 -30 0 -6 -12 -14 -27
-18 -16 -3 -32 -7 -38 -8 -17 -4 -35 21 -35 48 0 25 2 26 67 26 63 0 65 -1 50
-18z m545 -55 l47 -42 2 -105 c0 -58 1 -109 0 -114 0 -6 -14 11 -31 37 -33 53
-117 137 -136 137 -7 0 -12 10 -11 23 1 27 54 107 70 107 7 -1 33 -20 59 -43z
m-170 -224 c47 -49 78 -100 78 -128 0 -40 -61 -125 -89 -124 -15 0 -131 149
-131 168 0 12 82 131 90 131 3 0 26 -21 52 -47z m-432 -424 c0 -3 -13 -18 -30
-34 l-30 -29 0 69 0 69 30 -34 c16 -19 29 -38 30 -41z"/>
<path d="M378 903 c-26 -30 -27 -49 -6 -62 15 -9 17 -15 9 -21 -8 -5 3 -20 36
-47 47 -39 73 -45 73 -17 0 8 4 14 9 14 5 0 19 14 31 30 17 24 19 34 11 44 -9
11 -9 15 1 19 9 4 9 6 -2 6 -8 1 -26 13 -39 26 -29 31 -99 35 -123 8z"/>
<path d="M0 360 l0 -63 25 23 c14 13 25 31 25 40 0 9 -11 27 -25 40 l-25 23 0
-63z"/>
</g>
</svg>
